<svg width="24" height="20" viewBox="0 0 24 20" fill="none" xmlns="http://www.w3.org/2000/svg">
<path d="M22.766 2.566C22.4006 2.41379 21.9981 2.37378 21.6099 2.45107C21.2217 2.52836 20.8653 2.71945 20.586 3L18 5.586L13.414 1C13.0389 0.62506 12.5303 0.414429 12 0.414429C11.4697 0.414429 10.9611 0.62506 10.586 1L6 5.586L3.414 3C3.1343 2.72038 2.77797 2.52997 2.39006 2.45283C2.00216 2.3757 1.60009 2.41531 1.23469 2.56665C0.869291 2.71799 0.556965 2.97426 0.337197 3.30308C0.117428 3.6319 8.44486e-05 4.0185 0 4.414L0 15C0.00158786 16.3256 0.528882 17.5964 1.46622 18.5338C2.40356 19.4711 3.67441 19.9984 5 20H19C20.3256 19.9984 21.5964 19.4711 22.5338 18.5338C23.4711 17.5964 23.9984 16.3256 24 15V4.414C24.0001 4.01847 23.8829 3.63179 23.6633 3.30285C23.4436 2.97391 23.1314 2.71749 22.766 2.566Z" fill="#191F30"/>
</svg>
