<svg width="155" height="25" viewBox="0 0 155 25" fill="none" xmlns="http://www.w3.org/2000/svg">
<g clip-path="url(#clip0_102_63)">
<path d="M8.89937 10.7179H0L9.39378 29.9999H18.2932L8.89937 10.7179Z" fill="#0B92D2"/>
<path d="M27.1923 5.7738H18.293L28.346 29.9999H37.2453L27.1923 5.7738Z" fill="#137BC0"/>
<path d="M18.293 5.7738H27.1924L18.293 29.9999H9.39363L18.293 5.7738Z" fill="#0E763F"/>
<path fill-rule="evenodd" clip-rule="evenodd" d="M13.2192 19.5854L9.39355 29.9998H18.2929L13.2192 19.5854Z" fill="#FFD100"/>
<path fill-rule="evenodd" clip-rule="evenodd" d="M9.39355 29.9998H18.2929L13.2192 19.5854L9.39355 29.9998Z" fill="#FFD100"/>
<path d="M38.399 0.500122H47.2983L37.0805 29.9999H28.1812L38.399 0.500122Z" fill="#E20613"/>
<path fill-rule="evenodd" clip-rule="evenodd" d="M32.3049 18.0943L28.2561 29.7835L28.346 29.9999H37.2453L37.1555 29.7835L32.3049 18.0943Z" fill="#0E4B9C"/>
<path fill-rule="evenodd" clip-rule="evenodd" d="M37.0805 29.9999L37.1555 29.7835L32.3049 18.0943L28.2561 29.7835L28.1812 29.9999H37.0805Z" fill="#0E4B9C"/>
<path d="M51.2747 10.92H45.5737V7.69335H61.0986V10.92H55.3977V24.8045H51.2747V10.92Z" fill="white"/>
<path d="M68.1606 25C66.7184 25 65.4204 24.7148 64.2666 24.1445C63.1298 23.5578 62.2391 22.7511 61.5943 21.7245C60.9496 20.6978 60.6272 19.5326 60.6272 18.2289C60.6272 16.9252 60.9496 15.76 61.5943 14.7334C62.2391 13.7067 63.1298 12.9082 64.2666 12.3378C65.4204 11.7511 66.7184 11.4578 68.1606 11.4578C69.6028 11.4578 70.8923 11.7511 72.0291 12.3378C73.1659 12.9082 74.0567 13.7067 74.7014 14.7334C75.3462 15.76 75.6685 16.9252 75.6685 18.2289C75.6685 19.5326 75.3462 20.6978 74.7014 21.7245C74.0567 22.7511 73.1659 23.5578 72.0291 24.1445C70.8923 24.7148 69.6028 25 68.1606 25ZM68.1606 21.8711C69.1786 21.8711 70.01 21.5452 70.6548 20.8934C71.3165 20.2252 71.6473 19.3371 71.6473 18.2289C71.6473 17.1208 71.3165 16.2408 70.6548 15.5889C70.01 14.9208 69.1786 14.5867 68.1606 14.5867C67.1426 14.5867 66.3027 14.9208 65.641 15.5889C64.9793 16.2408 64.6484 17.1208 64.6484 18.2289C64.6484 19.3371 64.9793 20.2252 65.641 20.8934C66.3027 21.5452 67.1426 21.8711 68.1606 21.8711Z" fill="white"/>
<path d="M84.2015 19.6467L82.2927 21.4556V24.8045H78.3224V6.66669H82.2927V16.9334L88.0954 11.6534H92.8292L87.1283 17.2267L93.3382 24.8045H88.5281L84.2015 19.6467Z" fill="white"/>
<path d="M103.347 11.4578C105.043 11.4578 106.409 11.9467 107.444 12.9245C108.496 13.9022 109.022 15.3526 109.022 17.2756V24.8045H105.052V17.8622C105.052 16.8193 104.814 16.0452 104.339 15.54C103.864 15.0185 103.177 14.7578 102.278 14.7578C101.277 14.7578 100.479 15.0593 99.8854 15.6622C99.2916 16.2489 98.9947 17.1289 98.9947 18.3022V24.8045H95.0244V11.6534H98.8165V13.1934C99.3425 12.6393 99.9957 12.2156 100.776 11.9222C101.557 11.6126 102.414 11.4578 103.347 11.4578Z" fill="white"/>
<path d="M126.183 18.2778C126.183 18.3267 126.157 18.6689 126.106 19.3045H115.748C115.935 20.1193 116.376 20.763 117.071 21.2356C117.767 21.7082 118.632 21.9445 119.667 21.9445C120.38 21.9445 121.008 21.8467 121.551 21.6511C122.111 21.4393 122.628 21.1134 123.103 20.6734L125.216 22.8734C123.926 24.2911 122.043 25 119.566 25C118.022 25 116.656 24.7148 115.468 24.1445C114.28 23.5578 113.364 22.7511 112.719 21.7245C112.075 20.6978 111.752 19.5326 111.752 18.2289C111.752 16.9415 112.066 15.7845 112.694 14.7578C113.339 13.7148 114.212 12.9082 115.315 12.3378C116.435 11.7511 117.682 11.4578 119.057 11.4578C120.397 11.4578 121.61 11.7348 122.696 12.2889C123.782 12.843 124.63 13.6415 125.241 14.6845C125.869 15.7111 126.183 16.9089 126.183 18.2778ZM119.082 14.3422C118.183 14.3422 117.428 14.5867 116.817 15.0756C116.206 15.5645 115.833 16.2326 115.697 17.08H122.441C122.306 16.2489 121.932 15.5889 121.322 15.1C120.711 14.5948 119.964 14.3422 119.082 14.3422Z" fill="white"/>
<path d="M132.618 13.3889C133.093 12.7534 133.729 12.2726 134.527 11.9467C135.341 11.6208 136.275 11.4578 137.327 11.4578V14.9778C136.885 14.9452 136.588 14.9289 136.436 14.9289C135.299 14.9289 134.408 15.2385 133.763 15.8578C133.119 16.4608 132.796 17.3734 132.796 18.5956V24.8045H128.826V11.6534H132.618V13.3889Z" fill="white"/>
<path d="M144.344 25C143.207 25 142.095 24.8696 141.01 24.6089C139.924 24.3319 139.058 23.9896 138.414 23.5822L139.737 20.8445C140.348 21.2193 141.086 21.5289 141.951 21.7734C142.817 22.0015 143.665 22.1156 144.496 22.1156C146.176 22.1156 147.016 21.7163 147.016 20.9178C147.016 20.543 146.787 20.2741 146.329 20.1111C145.871 19.9482 145.166 19.8096 144.216 19.6956C143.096 19.5326 142.172 19.3452 141.442 19.1334C140.713 18.9215 140.076 18.5467 139.533 18.0089C139.007 17.4711 138.744 16.7052 138.744 15.7111C138.744 14.88 138.99 14.1467 139.482 13.5111C139.991 12.8593 140.721 12.3541 141.671 11.9956C142.638 11.6371 143.775 11.4578 145.082 11.4578C146.049 11.4578 147.007 11.5637 147.958 11.7756C148.925 11.9711 149.722 12.2482 150.35 12.6067L149.026 15.32C147.822 14.6682 146.507 14.3422 145.082 14.3422C144.233 14.3422 143.597 14.4563 143.173 14.6845C142.749 14.9126 142.537 15.2059 142.537 15.5645C142.537 15.9719 142.766 16.2571 143.224 16.42C143.682 16.583 144.411 16.7378 145.412 16.8845C146.532 17.0637 147.449 17.2593 148.161 17.4711C148.874 17.6667 149.493 18.0334 150.019 18.5711C150.545 19.1089 150.808 19.8585 150.808 20.82C150.808 21.6348 150.554 22.36 150.044 22.9956C149.535 23.6311 148.789 24.1282 147.805 24.4867C146.838 24.8289 145.684 25 144.344 25Z" fill="white"/>
</g>
<defs>
<clipPath id="clip0_102_63">
<rect width="155" height="25" fill="white"/>
</clipPath>
</defs>
</svg>
