<svg width="336" height="48" viewBox="0 0 336 48" fill="none" xmlns="http://www.w3.org/2000/svg">
<circle opacity="0.05" cx="139.2" cy="24" r="23.04" stroke="white" stroke-width="1.92"/>
<circle opacity="0.05" cx="196.8" cy="24" r="23.04" stroke="white" stroke-width="1.92"/>
<circle opacity="0.05" cx="254.4" cy="24" r="23.04" stroke="white" stroke-width="1.92"/>
<circle opacity="0.05" cx="81.6001" cy="24" r="23.04" stroke="white" stroke-width="1.92"/>
<circle opacity="0.05" cx="24" cy="24" r="23.04" stroke="white" stroke-width="1.92"/>
<g clip-path="url(#clip0_20_264)">
<path d="M143.201 16H135.201C132.992 16 131.201 17.7909 131.201 20V28C131.201 30.2091 132.992 32 135.201 32H143.201C145.41 32 147.201 30.2091 147.201 28V20C147.201 17.7909 145.41 16 143.201 16Z" stroke="white" stroke-width="1.92" stroke-linecap="round" stroke-linejoin="round"/>
<path d="M142.401 23.4958C142.5 24.1615 142.386 24.8415 142.076 25.439C141.766 26.0364 141.276 26.5209 140.674 26.8235C140.073 27.1261 139.392 27.2314 138.727 27.1245C138.063 27.0176 137.449 26.7038 136.973 26.2279C136.497 25.7519 136.183 25.1381 136.076 24.4735C135.969 23.809 136.075 23.1277 136.377 22.5265C136.68 21.9252 137.164 21.4347 137.762 21.1247C138.359 20.8147 139.039 20.701 139.705 20.7998C140.384 20.9005 141.013 21.2169 141.498 21.7024C141.984 22.1879 142.3 22.8166 142.401 23.4958Z" stroke="white" stroke-width="1.92" stroke-linecap="round" stroke-linejoin="round"/>
<path d="M143.6 19.5996H143.608" stroke="white" stroke-width="1.92" stroke-linecap="round" stroke-linejoin="round"/>
</g>
<g clip-path="url(#clip1_20_264)">
<path d="M254.4 14.7998C249.096 14.7998 244.8 19.0238 244.8 24.2334C244.8 28.4022 247.55 31.9374 251.364 33.1838C251.844 33.2726 252.02 32.9806 252.02 32.7302C252.02 32.5062 252.012 31.9126 252.008 31.1262C249.337 31.695 248.774 29.8606 248.774 29.8606C248.337 28.7718 247.706 28.4806 247.706 28.4806C246.837 27.8958 247.773 27.9078 247.773 27.9078C248.737 27.9734 249.244 28.8798 249.244 28.8798C250.1 30.3222 251.491 29.9054 252.04 29.6646C252.126 29.0542 252.373 28.639 252.648 28.403C250.516 28.167 248.275 27.3558 248.275 23.7414C248.275 22.7118 248.647 21.8702 249.263 21.2102C249.155 20.9718 248.831 20.0126 249.347 18.7134C249.347 18.7134 250.151 18.4606 251.987 19.6806C252.755 19.471 253.571 19.367 254.387 19.3622C255.203 19.367 256.019 19.471 256.787 19.6806C258.611 18.4606 259.415 18.7134 259.415 18.7134C259.931 20.0126 259.607 20.9718 259.511 21.2102C260.123 21.8702 260.495 22.7118 260.495 23.7414C260.495 27.3654 258.251 28.163 256.115 28.395C256.451 28.6782 256.763 29.2566 256.763 30.1406C256.763 31.403 256.751 32.4174 256.751 32.7238C256.751 32.971 256.919 33.2662 257.411 33.1718C261.252 31.9334 264 28.3958 264 24.2334C264 19.0238 259.701 14.7998 254.4 14.7998Z" fill="white"/>
</g>
<path d="M32.7997 16.7991C32.0336 17.3394 31.1854 17.7527 30.2877 18.0231C29.8059 17.4691 29.1656 17.0764 28.4533 16.8982C27.7411 16.72 26.9913 16.7648 26.3054 17.0266C25.6194 17.2884 25.0305 17.7546 24.6181 18.362C24.2057 18.9695 23.9899 19.6889 23.9997 20.4231V21.2231C22.5938 21.2595 21.2007 20.9477 19.9445 20.3154C18.6883 19.6831 17.608 18.75 16.7997 17.5991C16.7997 17.5991 13.5997 24.7991 20.7997 27.9991C19.1521 29.1174 17.1894 29.6782 15.1997 29.5991C22.3997 33.5991 31.1997 29.5991 31.1997 20.3991C31.199 20.1762 31.1775 19.9539 31.1357 19.7351C31.9522 18.9299 32.5284 17.9132 32.7997 16.7991Z" fill="white"/>
<path d="M79.5339 26.8647L79.2163 31.332C79.6707 31.332 79.8675 31.1368 80.1035 30.9024L82.234 28.8664L86.6485 32.0992C87.4581 32.5505 88.0285 32.3128 88.2469 31.3544L91.1446 17.7765L91.1454 17.7757C91.4022 16.5789 90.7126 16.1109 89.9238 16.4045L72.8914 22.9254C71.7289 23.3766 71.7465 24.0246 72.6938 24.3183L77.0483 25.6727L87.1629 19.3437C87.6389 19.0285 88.0717 19.2029 87.7157 19.5181L79.5339 26.8647Z" fill="white"/>
<circle opacity="0.05" cx="312" cy="24" r="23.04" stroke="white" stroke-width="1.92"/>
<g clip-path="url(#clip2_20_264)">
<path d="M319.459 21.8462C318.853 21.8462 318.319 22.1014 317.927 22.499C316.483 21.4846 314.535 20.8318 312.378 20.7622L313.499 15.6374L317.067 16.4502C317.067 17.3366 317.779 18.0606 318.653 18.0606C319.543 18.0606 320.259 17.3174 320.259 16.4302C320.259 15.543 319.548 14.7998 318.654 14.7998C318.031 14.7998 317.493 15.1814 317.225 15.703L313.283 14.8166C313.085 14.763 312.891 14.907 312.838 15.1086L311.607 20.7582C309.467 20.8486 307.54 21.5006 306.091 22.5158C305.699 22.1014 305.144 21.8462 304.538 21.8462C302.288 21.8462 301.551 24.9094 303.611 25.9566C303.539 26.2806 303.506 26.6262 303.506 26.971C303.506 30.4118 307.326 33.1998 312.016 33.1998C316.727 33.1998 320.547 30.4118 320.547 26.971C320.547 26.6262 320.511 26.2646 320.422 25.9398C322.44 24.8886 321.697 21.8478 319.459 21.8462ZM306.88 26.1742C306.88 25.271 307.592 24.5438 308.487 24.5438C309.36 24.5438 310.073 25.2662 310.073 26.1742C310.073 27.0614 309.361 27.7846 308.487 27.7846C307.596 27.7886 306.88 27.0614 306.88 26.1742ZM315.551 30.0126C314.079 31.507 309.923 31.507 308.449 30.0126C308.287 29.8686 308.287 29.6142 308.449 29.4502C308.591 29.3062 308.842 29.3062 308.983 29.4502C310.108 30.6206 313.839 30.6406 315.013 29.4502C315.155 29.3062 315.406 29.3062 315.547 29.4502C315.713 29.615 315.713 29.8694 315.551 30.0126ZM315.519 27.7878C314.645 27.7878 313.933 27.0654 313.933 26.179C313.933 25.2758 314.645 24.5486 315.519 24.5486C316.409 24.5486 317.125 25.271 317.125 26.179C317.121 27.0614 316.409 27.7878 315.519 27.7878Z" fill="white"/>
</g>
<g clip-path="url(#clip3_20_264)">
<path d="M204.868 18.1858L206.4 16.7202V16.3994H201.093L197.311 25.8138L193.007 16.3994H187.443V16.7202L189.232 18.8746C189.407 19.0338 189.498 19.2666 189.475 19.501V27.9674C189.53 28.2722 189.431 28.5858 189.216 28.8074L187.2 31.2506V31.5674H192.916V31.2466L190.9 28.8074C190.682 28.585 190.579 28.277 190.623 27.9674V20.6442L195.64 31.5714H196.223L200.538 20.6442V29.349C200.538 29.5786 200.538 29.6258 200.387 29.7762L198.835 31.2778V31.5994H206.365V31.2786L204.869 29.8138C204.738 29.7146 204.67 29.5482 204.698 29.3866V18.613C204.67 18.4506 204.737 18.2842 204.868 18.1858Z" fill="white"/>
</g>
<defs>
<clipPath id="clip0_20_264">
<rect width="19.2" height="19.2" fill="white" transform="translate(129.6 14.3999)"/>
</clipPath>
<clipPath id="clip1_20_264">
<rect width="19.2" height="19.2" fill="white" transform="translate(244.8 14.3999)"/>
</clipPath>
<clipPath id="clip2_20_264">
<rect width="19.2" height="19.2" fill="white" transform="translate(302.4 14.3999)"/>
</clipPath>
<clipPath id="clip3_20_264">
<rect width="19.2" height="19.2" fill="white" transform="translate(187.2 14.3999)"/>
</clipPath>
</defs>
</svg>
