<svg width="24" height="24" viewBox="0 0 24 24" fill="none" xmlns="http://www.w3.org/2000/svg">
<path d="M1.3267 12.4001L4.8867 15.0001L3.53471 19.1871C3.31622 19.8365 3.31345 20.5391 3.52681 21.1902C3.74018 21.8413 4.15825 22.406 4.7187 22.8001C5.26956 23.2069 5.9371 23.4248 6.62186 23.4214C7.30662 23.4179 7.97195 23.1933 8.51871 22.7811L11.9997 20.2191L15.4817 22.7781C16.0316 23.1825 16.6955 23.4022 17.3781 23.4055C18.0607 23.4089 18.7267 23.1957 19.2805 22.7966C19.8342 22.3975 20.2472 21.8331 20.46 21.1846C20.6728 20.536 20.6744 19.8366 20.4647 19.1871L19.1127 15.0001L22.6727 12.4001C23.2218 11.9986 23.6301 11.4338 23.8391 10.7865C24.048 10.1391 24.0471 9.44226 23.8364 8.79546C23.6257 8.14867 23.2159 7.585 22.6657 7.18498C22.1155 6.78496 21.453 6.56905 20.7727 6.56808H16.3997L15.0727 2.43208C14.864 1.78103 14.454 1.21309 13.9017 0.810142C13.3494 0.407193 12.6834 0.190063 11.9997 0.190063C11.316 0.190063 10.65 0.407193 10.0977 0.810142C9.54544 1.21309 9.13538 1.78103 8.92671 2.43208L7.59971 6.56808H3.23071C2.55045 6.56905 1.8879 6.78496 1.33768 7.18498C0.787473 7.585 0.377745 8.14867 0.167026 8.79546C-0.0436933 9.44226 -0.044626 10.1391 0.164361 10.7865C0.373348 11.4338 0.781566 11.9986 1.3307 12.4001H1.3267Z" fill="#191F30"/>
</svg>
